<?xml version="1.0" standalone="no"?>
<!DOCTYPE svg PUBLIC "-//W3C//DTD SVG 1.1//EN" "http://www.w3.org/Graphics/SVG/1.1/DTD/svg11.dtd" >
<svg>
<metadata>
Created by FontForge 20100429 at Sun Jun 12 20:31:36 2011
 By www-data
(c) copyright by Fontbit 2000
</metadata>
<defs>
<font id="Tipograf2Light" horiz-adv-x="1479" >
  <font-face 
    font-family="Tipograf2Light"
    font-weight="4"
    font-stretch="normal"
    units-per-em="2048"
    panose-1="0 0 0 0 0 0 0 0 0 0"
    ascent="1505"
    descent="-543"
    x-height="28"
    bbox="-156 -1520.06 1900 458"
    underline-thickness="150"
    underline-position="-142"
    unicode-range="U+0020-007E"
  />
    <missing-glyph />
    <glyph glyph-name="space" unicode=" " horiz-adv-x="453" 
 />
    <glyph glyph-name="exclam" unicode="!" horiz-adv-x="601" 
d="M289 -1200c54 -1 80 35 76 100l-51 840h-50l-47 -852c0 -59 24 -88 72 -88zM346 0h-113v-131h113v131z" />
    <glyph glyph-name="quotedbl" unicode="&#x22;" horiz-adv-x="514" 
d="M453 -1085c-15 64 -135 258 -178 300c-13 -17 -23 -37 -28 -60c63 -133 102 -252 115 -357c39 26 70 65 91 117zM257 -1085c-14 64 -134 258 -177 300c-13 -17 -23 -37 -29 -60c64 -133 103 -252 116 -357c39 26 69 65 90 117z" />
    <glyph glyph-name="numbersign" unicode="#" horiz-adv-x="836" 
d="M795 -844l-17 82h-122l-73 316h119l-18 81h-124l-45 189h-92l45 -189h-217l-47 189h-92l49 -189h-130l12 -81h136l76 -316h-134l14 -82h139l48 -184h92l-47 184h219l45 -184h90l-45 184h119zM562 -762h-215l-76 316h217z" />
    <glyph glyph-name="dollar" unicode="$" horiz-adv-x="787" 
d="M86 -798c-2 -146 120 -235 272 -233v-116h52v118c95 0 174 39 239 116c-5 11 -22 29 -49 53c-50 -69 -113 -104 -190 -104v411c89 38 155 75 198 113c63 55 94 122 94 199c0 147 -140 250 -292 246v118h-52v-122c-101 0 -185 -42 -252 -127c8 -14 24 -31 47 -52
c46 77 114 115 205 115v-449c-114 -43 -269 -156 -272 -286zM358 -964c-92 -3 -158 74 -157 165c1 92 84 185 157 214v-379zM585 -247c0 -101 -58 -181 -175 -238v422c117 0 175 -61 175 -184z" />
    <glyph glyph-name="percent" unicode="%" horiz-adv-x="1213" 
d="M887 -582c140 0 214 149 214 301c0 142 -82 300 -214 300c-131 0 -215 -160 -215 -300c0 -145 80 -301 215 -301zM926 -1028l-549 1028h-93l548 -1028h94zM327 -1051c140 0 214 149 214 301c0 142 -81 300 -214 300c-131 0 -214 -159 -214 -300c0 -146 80 -301 214 -301z
M886 -32c73 0 106 -159 106 -249c0 -91 -33 -249 -106 -249s-107 158 -107 249s34 249 107 249zM326 -501c73 0 107 -158 107 -249s-34 -249 -107 -249s-106 159 -106 249c0 91 33 249 106 249z" />
    <glyph glyph-name="ampersand" unicode="&#x26;" horiz-adv-x="1256" 
d="M854 -63c117 3 178 -124 178 -250v-570h111v529c3 195 -101 354 -286 354h-323c-72 -3 -84 -12 -90 -76l-43 -522h109l40 535h304zM113 -801c1 -67 33 -80 101 -80h354c174 0 261 101 261 303v295h-111v-315c3 -111 -52 -219 -153 -219h-344v817h-108v-801z" />
    <glyph glyph-name="quotesingle" unicode="'" horiz-adv-x="318" 
d="M257 -1085c-14 64 -134 258 -177 300c-13 -17 -23 -37 -29 -60c64 -133 103 -252 116 -357c39 26 69 65 90 117z" />
    <glyph glyph-name="parenleft" unicode="(" horiz-adv-x="494" 
d="M400 -1163c-89 130 -172 435 -172 649c0 260 58 477 174 651h-73c-116 -119 -215 -418 -216 -649c0 -229 102 -531 214 -651h73z" />
    <glyph glyph-name="parenright" unicode=")" horiz-adv-x="494" 
d="M169 -1163c112 121 212 418 212 649c0 236 -96 531 -212 651h-77c119 -179 179 -396 179 -651c0 -210 -88 -520 -176 -649h74z" />
    <glyph glyph-name="asterisk" unicode="*" horiz-adv-x="666" 
d="M598 -828l-45 83l-204 -158l30 257h-92l30 -257l-204 158l-44 -83l236 -105l-236 -95l44 -89l204 153l-30 -255h92l-30 255l204 -153l45 89l-237 95z" />
    <glyph glyph-name="plus" unicode="+" horiz-adv-x="588" 
d="M518 -473h-190v221h-68v-221h-192l-2 -70h194v-225h68v225h190v70z" />
    <glyph glyph-name="comma" unicode="," horiz-adv-x="257" 
d="M175 -88c-36 121 -85 221 -147 300c-13 -17 -22 -37 -28 -60c41 -97 70 -216 85 -357c39 26 69 65 90 117z" />
    <glyph glyph-name="hyphen" unicode="-" horiz-adv-x="588" 
d="M520 -473h-452v-70h452v70z" />
    <glyph glyph-name="period" unicode="." horiz-adv-x="257" 
d="M164 0h-113v-131h113v131z" />
    <glyph glyph-name="slash" unicode="/" horiz-adv-x="659" 
d="M628 -1028l-493 1028h-104l488 -1028h109z" />
    <glyph glyph-name="zero" unicode="0" horiz-adv-x="860" 
d="M756 -512c0 144 -20 261 -59 351c-54 125 -143 188 -267 188c-87 0 -156 -29 -208 -86c-79 -87 -118 -238 -118 -453c0 -361 109 -541 326 -541s326 180 326 541zM637 -512c0 -321 -69 -481 -207 -481s-207 160 -207 481c0 319 69 479 207 479s207 -160 207 -479z" />
    <glyph glyph-name="one" unicode="1" horiz-adv-x="860" 
d="M616 0h-108v-915c-82 144 -195 264 -338 360c-8 -28 -9 -60 -4 -92c180 -126 226 -186 358 -381h92v1028z" />
    <glyph glyph-name="two" unicode="2" horiz-adv-x="860" 
d="M424 -1055c202 0 324 126 324 328c0 139 -51 270 -152 394c-84 104 -195 195 -334 272h467c5 33 6 30 0 61h-547c-61 4 -66 -56 -24 -82c143 -91 247 -184 319 -269c100 -119 150 -245 150 -378s-84 -266 -211 -266c-103 0 -190 49 -262 147c-31 -29 -26 -17 -39 -59
c79 -99 182 -148 309 -148z" />
    <glyph glyph-name="three" unicode="3" horiz-adv-x="860" 
d="M500 -539c137 12 256 129 256 275c0 182 -152 289 -342 289c-136 0 -239 -43 -310 -129c8 -31 21 -49 39 -56c51 68 141 123 246 123c135 0 248 -91 248 -227c0 -141 -118 -243 -262 -240h-119c-5 -19 -6 -43 0 -63h119c132 3 254 -83 254 -209
c0 -135 -102 -219 -240 -219c-99 0 -181 41 -246 123c-19 -7 -32 -25 -39 -54c72 -86 156 -128 310 -129c192 -3 334 96 334 279c0 136 -116 225 -248 237z" />
    <glyph glyph-name="four" unicode="4" horiz-adv-x="860" 
d="M581 -1007c0 194 -291 650 -405 771h387v-319c29 -36 66 -61 109 -74v393h108c6 22 7 42 0 62h-108v174h-109v-174h-436c-54 5 -55 -65 -29 -96c126 -152 323 -542 375 -758h68c27 0 40 7 40 21z" />
    <glyph glyph-name="five" unicode="5" horiz-adv-x="860" 
d="M426 -676c196 0 332 149 332 344c0 198 -154 362 -352 357c-160 -3 -217 -40 -304 -129c7 -19 21 -38 41 -58c57 85 139 127 248 127c156 0 246 -135 246 -297c0 -156 -95 -278 -246 -278c-75 0 -149 31 -217 98c-20 20 -42 10 -37 -23l66 -458c3 -23 16 -35 39 -35h444
c9 19 10 43 0 61h-377l-45 334c33 -29 87 -43 162 -43z" />
    <glyph glyph-name="six" unicode="6" horiz-adv-x="860" 
d="M436 -676c194 0 320 147 320 344c0 204 -130 357 -330 357c-191 0 -322 -165 -322 -361v-317c-4 -212 120 -402 322 -402c113 0 199 40 258 119c-7 29 -20 47 -39 53c-59 -75 -127 -112 -205 -112c-143 0 -228 148 -225 301v151c28 -69 127 -133 221 -133zM426 -35
c285 8 292 -586 0 -579c-280 -6 -282 584 0 579z" />
    <glyph glyph-name="seven" unicode="7" horiz-adv-x="860" 
d="M270 -27c-3 -302 238 -756 396 -938h-584c-6 -20 -7 -45 0 -63h643c55 -4 66 45 39 78c-171 212 -379 620 -386 950h-71c-25 0 -37 -9 -37 -27z" />
    <glyph glyph-name="eight" unicode="8" horiz-adv-x="860" 
d="M532 -532c136 19 230 125 230 276c0 185 -141 295 -332 295c-188 0 -332 -112 -332 -295c0 -147 96 -263 232 -276c-125 -11 -217 -126 -217 -261c0 -171 143 -276 319 -276c184 0 318 99 318 276c0 141 -91 244 -218 261zM430 -565c123 0 199 -96 199 -221
c0 -129 -74 -222 -199 -222c-126 0 -199 97 -199 222c0 126 75 221 199 221zM432 -20c130 0 211 -107 211 -242c0 -142 -73 -242 -211 -242c-132 0 -213 106 -213 242c0 135 82 242 213 242z" />
    <glyph glyph-name="nine" unicode="9" horiz-adv-x="860" 
d="M434 -1059c192 0 322 165 322 361v317c5 213 -120 401 -322 401c-113 0 -199 -39 -258 -118c7 -29 20 -47 39 -54c59 75 127 113 205 113c143 0 228 -148 225 -301v-152c-29 70 -125 133 -219 134c-194 2 -322 -148 -322 -344c0 -205 130 -357 330 -357zM434 -420
c279 0 284 -577 0 -577c-136 0 -217 143 -217 288c0 148 79 289 217 289z" />
    <glyph glyph-name="colon" unicode=":" horiz-adv-x="287" 
d="M175 -662h-114v-131h114v131zM175 0h-114v-131h114v131z" />
    <glyph glyph-name="semicolon" unicode=";" horiz-adv-x="288" 
d="M175 -662h-113v-131h113v131zM175 -88c-36 121 -85 221 -147 300c-13 -17 -22 -37 -28 -60c41 -97 70 -216 85 -357c39 26 69 65 90 117z" />
    <glyph glyph-name="less" unicode="&#x3c;" horiz-adv-x="588" 
d="M508 -238l-43 60l-354 -271c-41 -28 -39 -91 0 -122l354 -279l43 57l-346 279z" />
    <glyph glyph-name="equal" unicode="=" horiz-adv-x="588" 
d="M520 -651h-452v-70h452v70zM520 -307h-452v-70h452v70z" />
    <glyph glyph-name="greater" unicode="&#x3e;" horiz-adv-x="588" 
d="M477 -571c41 29 40 92 0 122l-354 271l-43 -60l346 -276l-346 -279l43 -57z" />
    <glyph glyph-name="question" unicode="?" horiz-adv-x="981" 
d="M472 -1204c185 0 315 117 315 303c0 125 -66 233 -192 332c-87 68 -120 114 -120 247v62h-114v-49c0 -117 56 -217 169 -300c93 -68 139 -162 139 -283c0 -131 -80 -251 -206 -251c-133 0 -221 114 -218 251v97h-108v-63c-4 -195 140 -346 335 -346zM475 0h-114v-131h114
v131z" />
    <glyph glyph-name="at" unicode="@" horiz-adv-x="1886" 
d="M684 -14c-109 0 -185 -118 -181 -233c8 -245 176 -488 321 -641c97 -58 144 -93 230 -60c93 0 161 28 202 84l8 -96l136 24s-173 597 -173 731c0 13 2 22 5 29c-9 26 -11 61 19 61c11 0 26 -4 45 -13c86 28 124 -20 192 -112c145 -59 217 -308 217 -499
c-22 -94 -46 -203 -105 -309c-92 -164 -314 -286 -560 -288c-155 43 -285 96 -392 160c-149 51 -237 141 -264 272c-117 173 -152 294 -152 480c0 160 29 296 104 408c41 145 131 230 272 256c112 67 275 119 461 119c154 0 286 -50 395 -151c141 -70 226 -203 256 -400
l124 36c-105 346 -434 614 -867 614c-356 0 -625 -188 -759 -432c-154 -281 -141 -661 9 -943c144 -270 446 -489 824 -489c437 0 714 266 714 685c0 248 -114 489 -259 602c-87 68 -184 104 -293 104c-102 0 -162 -40 -181 -121c11 -43 29 -77 56 -104
c-164 151 -299 226 -404 226zM1182 -773c-1 -55 -21 -122 -76 -122c-19 0 -41 8 -66 23c-53 -5 -99 40 -136 136c-74 9 -138 79 -192 211c-39 97 -59 174 -59 232c13 19 23 51 30 95c35 -29 65 -37 85 6c75 -37 157 -101 248 -192c27 -59 67 -107 120 -144
c31 -97 46 -179 46 -245z" />
    <glyph glyph-name="A" unicode="A" 
d="M1456 0h-535l39 -32c48 -21 81 -51 99 -88c0 -29 -13 -76 -40 -139l-82 -195h-525l-92 214c-23 53 -34 92 -34 118c0 49 38 77 114 82l43 40h-427v-37c57 -10 89 -32 96 -67c43 -13 85 -68 127 -167l477 -1116l44 27l463 1101c32 76 67 122 105 139c21 51 63 79 128 83
v37zM872 -544l-176 -528l-253 544z" />
    <glyph glyph-name="B" unicode="B" horiz-adv-x="1366" 
d="M946 -692c182 32 308 140 308 321c0 163 -112 282 -239 328c-82 30 -196 45 -341 43l-578 -8l-16 -56l5 27c57 0 98 -18 122 -54c6 -35 23 -84 23 -149v-876c1 -155 -24 -192 -145 -203l43 7l-48 -40l540 -4c225 -2 385 44 480 139c61 61 91 135 91 223
c0 149 -82 249 -245 302zM724 -765c170 0 252 -86 258 -237c8 -249 -310 -334 -560 -265v521c44 1 103 -9 178 -30c45 7 87 11 124 11zM651 -71c199 0 371 -97 371 -283c0 -204 -189 -309 -423 -309c-85 0 -144 3 -177 9l-22 494c92 59 176 89 251 89z" />
    <glyph glyph-name="C" unicode="C" horiz-adv-x="1366" 
d="M780 -1315c-320 0 -478 294 -478 660c0 255 79 430 237 526c72 23 176 31 277 25c95 31 183 22 257 -30c53 -76 116 -144 191 -204l72 18c-159 234 -359 351 -602 351c-225 0 -396 -86 -522 -250c-161 -210 -180 -553 -52 -803c104 -203 318 -365 604 -365
c99 0 195 24 290 72c29 15 49 22 60 22c15 -3 23 -14 23 -31c0 -18 -8 -43 -25 -76l121 13l31 461l-64 -2c-56 -258 -196 -387 -420 -387z" />
    <glyph glyph-name="D" unicode="D" 
d="M1401 -685c0 189 -57 347 -172 473c-132 145 -328 216 -588 212l-537 -8l-16 8l-2 -37c57 0 98 -18 122 -55c15 -22 22 -71 22 -148v-876c0 -85 -34 -131 -102 -140c7 -13 11 -24 11 -31c-3 -22 -30 -15 -51 -9l-24 -80l523 20c197 7 333 25 407 49
c241 78 407 310 407 622zM1173 -675c0 -178 -50 -316 -149 -413c-109 -107 -240 -160 -392 -160c-75 0 -135 -2 -216 8l6 1142c27 -1 99 -2 218 2c342 10 533 -230 533 -579z" />
    <glyph glyph-name="E" unicode="E" horiz-adv-x="1251" 
d="M920 -504c-3 -119 -78 -164 -202 -153l-294 25s-5 339 -3 499c49 34 78 59 147 29h184c58 -8 108 -14 152 0c48 -16 90 -27 125 -33c29 -42 51 -103 67 -183l96 16l-96 320h-1000l-16 -80l2 43c31 0 60 -28 86 -83c63 48 65 -20 64 -160l-4 -840
c-19 -89 -32 -127 -26 -159c-23 -27 -63 -40 -120 -40l-10 -9v-40l1007 12l15 297l-70 -5c-11 -59 -21 -101 -32 -128c-36 -50 -138 -66 -208 -88h-376l24 488l286 46c142 -2 210 -40 186 -134l72 -32l32 360z" />
    <glyph glyph-name="F" unicode="F" horiz-adv-x="1139" 
d="M1055 -1058l-79 2c-16 -96 -56 -160 -120 -192c-21 11 -72 16 -152 16h-288l16 416l234 67c47 -23 91 -39 133 -47c21 -26 36 -72 44 -139h37v459h-37c-8 -134 -43 -215 -177 -190l-226 42l-21 384c17 51 25 87 13 136c18 23 40 6 72 -8c43 27 63 52 62 75h49v37l-583 -8
l40 -56l9 27c37 -34 71 -51 103 -51c0 -43 14 -93 43 -152v-876c3 -152 -15 -193 -146 -203l-9 23l-8 -64l960 8z" />
    <glyph glyph-name="G" unicode="G" 
d="M1392 -680l25 -14c-35 44 -60 66 -77 66c-9 0 -16 -7 -20 -20c-24 38 -19 102 -8 160l-104 384c-75 128 -213 216 -416 216c-472 0 -708 -285 -728 -761c-5 -141 23 -255 86 -343c109 -267 277 -400 504 -400c41 0 82 13 128 13c87 0 189 22 306 65c38 14 63 21 75 21
c36 1 33 -32 21 -59l80 -8l20 409l-84 -9c-3 -101 -28 -183 -88 -232c-86 -69 -200 -83 -328 -56c-179 -66 -295 -5 -376 168c-137 165 -147 497 -50 718c76 81 146 143 210 186l224 56c96 5 171 -16 224 -64l79 -312c0 -51 -2 -85 -6 -103l-97 -41c5 -33 -6 -59 -32 -64
l32 -80l448 8z" />
    <glyph glyph-name="H" unicode="H" 
d="M896 -40c123 -6 147 -45 147 -200v-413h-630v413c0 69 12 114 35 136c2 37 61 41 104 32l56 35v45l-581 -8v-37l21 -43c40 13 84 13 96 -24c37 -32 72 -85 72 -160l5 -851c1 -70 -4 -116 -13 -137c-32 -3 -48 -9 -48 -20c-53 0 -82 -16 -85 -47l-43 55v-104l576 12v37
h-49c-85 6 -99 37 -142 103c-3 15 -11 49 -4 101l43 339h576l11 -339c2 -64 -2 -110 -13 -137c-41 -8 -86 -30 -133 -67h-48v-37h580v37h-48c-55 0 -102 40 -141 119c-3 3 5 35 24 96l-29 864c-2 66 2 106 13 120c38 25 64 36 41 59c29 16 59 24 92 24h48v37h-557l-23 -37z
" />
    <glyph glyph-name="I" unicode="I" horiz-adv-x="682" 
d="M624 0l-584 -4l3 -33h48c56 0 87 -22 93 -67c27 -29 53 -74 53 -136v-876c-10 -114 19 -157 -81 -164c-27 -23 -112 -44 -112 -44v-48l584 -8l-4 61h-49c-39 23 -68 52 -87 87c-32 16 -60 54 -59 116l19 868c19 52 28 86 20 136c16 32 52 57 107 75l41 -43z" />
    <glyph glyph-name="J" unicode="J" horiz-adv-x="797" 
d="M785 -1319h-49c-53 10 -94 26 -121 49c-16 21 -24 72 -24 154v663c0 190 -41 339 -143 425c-83 70 -240 84 -339 22c-42 -45 -50 -91 -52 -155c-1 -43 25 -57 63 -47c93 -22 105 36 148 96c13 18 27 27 36 4c35 0 53 -29 56 -88l39 -920c3 -62 -2 -107 -13 -136
c-33 -24 -78 -39 -134 -44l-48 -23l-12 -77h600z" />
    <glyph glyph-name="K" unicode="K" 
d="M432 -232c-4 135 10 183 124 176l56 8l4 56h-568l8 -36l24 -24c61 -5 107 -14 136 -26c16 -21 24 -72 24 -154v-876c-8 -67 -12 -112 -13 -137c-36 -12 -78 -57 -133 -66h-48l2 -53l572 4l-4 56s-35 24 -62 18c-27 0 -63 30 -106 90c-11 7 -16 36 -16 88v415
c26 -25 67 -76 124 -155c208 -164 328 -276 360 -336c5 -29 11 -53 16 -72c-21 -10 -96 -76 -96 -76l4 -48l488 -4l2 73c-49 7 -107 27 -174 59c-27 27 -61 72 -116 124c-59 56 -121 108 -172 168l-184 216l440 497c121 136 249 209 384 218v37h-645v-37
c73 0 109 -21 109 -63c0 -29 -24 -67 -72 -114l-468 -463v437z" />
    <glyph glyph-name="L" unicode="L" horiz-adv-x="1251" 
d="M380 -232c22 75 51 152 144 144l192 -16c88 3 154 7 198 13c121 -29 195 -106 222 -233l96 44l-145 288h-1050v-37h51c57 0 98 -19 123 -56c14 -21 21 -71 21 -148v-875c0 -85 -11 -143 -32 -176c-58 -2 -168 -16 -168 -16l-4 -60h628l-8 96c-81 -24 -174 -35 -208 26
c-6 12 -11 63 -16 153zM1164 -132zM1144 -56z" />
    <glyph glyph-name="M" unicode="M" horiz-adv-x="1821" 
d="M1260 -60c108 35 134 -46 134 -171v-906l-502 1105l-56 16l-472 -1052l-50 837c12 77 21 129 27 156c25 28 64 42 117 42h48v37h-454l8 -52s47 6 70 6c27 0 47 -15 58 -46c13 -19 40 -65 38 -143l-26 -885c5 -64 7 -108 6 -131c-25 -35 -81 -54 -166 -57l-4 -60l388 -8
l440 1052l532 -1060l368 20l-8 44l-25 1c-58 15 -99 33 -123 52c-15 21 -22 70 -22 146v886c0 83 9 135 28 156c25 29 58 43 98 43h56l-8 44l-548 -12v-44z" />
    <glyph glyph-name="N" unicode="N" 
d="M83 -33c121 -10 145 -47 145 -198v-943c-67 -77 -84 -98 -179 -132c-19 -6 -34 -12 -45 -18l8 -36l320 -12l826 1037v-782c-12 -74 -21 -126 -28 -156c-28 1 -66 -7 -114 -23h-56l6 -56h472l2 60h-44c-52 0 -95 10 -128 29c-15 21 -22 70 -22 146v1143h-36l-894 -1092
v835c0 84 9 136 27 156c25 28 56 41 93 39l20 -4l-12 32l-408 12l40 -48z" />
    <glyph glyph-name="O" unicode="O" 
d="M749 -1387c375 0 651 320 651 701c0 395 -278 717 -667 717c-396 0 -661 -310 -661 -714c0 -383 295 -704 677 -704zM1171 -650c0 -222 -4 -268 -73 -415c-75 -160 -191 -233 -378 -215c-126 -17 -208 20 -282 109c-93 111 -137 276 -137 492c0 154 4 231 11 232
c3 0 7 -15 12 -45c138 280 256 420 353 420c23 -5 47 0 71 0c158 0 299 -147 424 -440c-1 79 -1 33 -1 -138z" />
    <glyph glyph-name="P" unicode="P" horiz-adv-x="1139" 
d="M228 -1116c2 -158 -22 -191 -143 -203h-51v-37h497c226 -1 354 38 456 153c54 62 80 137 80 222c2 240 -172 377 -419 374c-65 0 -141 -9 -228 -28v395c-1 156 23 192 143 203h52v37h-581v-37h51c57 0 98 -19 123 -56c13 -21 20 -70 20 -147v-876zM584 -672
c149 0 255 -137 255 -289c0 -236 -179 -365 -419 -295v564c71 13 125 20 164 20z" />
    <glyph glyph-name="Q" unicode="Q" 
d="M746 -1387c381 0 660 323 655 710c-5 346 -218 615 -499 692c127 220 291 338 490 354v32c-301 2 -656 -203 -835 -386c-98 -39 -174 -80 -228 -123c-171 -135 -257 -326 -257 -573c0 -395 282 -706 674 -706zM734 -37c304 1 438 -281 438 -615
c0 -303 -75 -502 -225 -598c-63 -40 -134 -60 -213 -60c-308 -1 -433 290 -433 629c0 219 47 388 142 507c83 33 180 79 291 137z" />
    <glyph glyph-name="R" unicode="R" horiz-adv-x="1366" 
d="M421 -240c-2 155 23 192 142 203h53v37l-556 4l32 -40l-6 -1c57 0 98 -19 123 -56c14 -21 21 -70 21 -147v-876c-2 -125 -10 -156 -66 -192l4 4l-32 -60s515 0 659 26c165 30 297 148 298 331c0 182 -111 298 -334 347l280 389c108 145 153 205 345 234v37h-362
l-459 -634c-61 2 -88 3 -142 0v394zM433 -685c229 12 419 -87 419 -297c0 -173 -117 -289 -290 -286c-39 0 -91 6 -157 19l39 529z" />
    <glyph glyph-name="S" unicode="S" horiz-adv-x="1139" 
d="M124 -1038c0 -210 182 -357 397 -357c73 0 149 18 229 53c38 17 64 19 78 6c30 11 56 6 60 -28l60 4l-4 400l-52 -32c-19 -125 -87 -206 -204 -244c-48 -53 -105 -62 -172 -28c-60 -35 -109 -25 -156 24c-89 43 -100 170 -34 246c42 49 140 116 295 200
c110 59 179 98 206 117c132 90 198 198 198 323c0 259 -255 424 -538 368c-33 -7 -191 -44 -252 -68c-33 0 -52 17 -55 50l-44 -8l4 -396l28 -12c42 156 87 247 211 317c176 100 468 40 468 -174c0 -73 -39 -137 -113 -196c-78 -63 -381 -217 -460 -283
c-98 -81 -150 -173 -150 -282z" />
    <glyph glyph-name="T" unicode="T" horiz-adv-x="1251" 
d="M1200 -1144h-68c4 3 6 5 6 5c-1 -4 -3 -10 -6 -19c-48 -44 -121 -82 -218 -113l-190 27l-1 1009c-17 61 -17 129 27 156c26 16 64 32 117 42l13 1l8 32l-532 8l4 -44l27 3c57 0 98 -17 122 -52c38 -21 35 -91 22 -146l-15 -1013l-144 -4h-144c-72 27 -109 47 -100 92
l-68 -8l18 -188h1107z" />
    <glyph glyph-name="U" unicode="U" 
d="M208 -1116c0 -142 -22 -196 -146 -203l-50 -9l16 -80h576l-7 89h-52c-57 7 -97 25 -120 53c-41 17 -72 63 -73 138l-4 600c16 160 61 270 119 343c59 74 143 105 269 105c88 0 161 -19 228 -52c74 -36 125 -81 144 -156c27 -48 64 -143 64 -288v-540
c0 -85 -17 -137 -52 -156c-9 -27 -60 -24 -100 -24h-48l16 -100l468 16l1 61h-51c-53 0 -91 19 -110 59c-9 19 -12 68 -12 144v560c-15 125 -32 220 -52 284c-63 203 -227 304 -492 304c-264 0 -431 -95 -500 -284c-21 -163 -32 -275 -32 -334v-530z" />
    <glyph glyph-name="V" unicode="V" 
d="M1454 -1319c-127 25 -156 80 -203 196l-473 1154h-37l-508 -1169c-26 -61 -44 -97 -55 -110c-33 -41 -87 -65 -160 -71v-37h554v37c-193 23 -168 100 -104 247l345 795l320 -785c31 -77 47 -130 47 -161c0 -47 -42 -78 -127 -93l-17 -3v-37h418v37z" />
    <glyph glyph-name="W" unicode="W" horiz-adv-x="1933" 
d="M1888 -1312c-40 21 -68 52 -84 92c-13 13 -34 67 -64 160l-356 1096l-85 -1l-267 -871l-349 871h-36l-403 -1126c-28 -79 -47 -128 -57 -149c-21 -45 -46 -68 -75 -68l8 -52l388 8l33 37l-37 27c-53 -17 -97 -5 -96 55c0 15 15 68 44 161l236 748l184 -636v-203
c-27 -79 -70 -127 -129 -146c-2 -2 2 -8 13 -19l4 -48h400v56l-4 44c-60 -18 -112 -6 -136 44c3 35 33 96 92 184l224 748l260 -768c13 -38 27 -91 44 -160c0 -33 -7 -51 -20 -56c-23 -8 -42 -9 -56 -4l-8 -80h344z" />
    <glyph glyph-name="X" unicode="X" 
d="M1088 -1243c0 -67 -52 -77 -145 -76v-37h481v37c-39 2 -70 8 -93 18c-65 27 -140 96 -226 206l-269 344l291 434c65 98 110 159 133 183c58 61 123 93 195 97v37h-582v-37c96 5 168 -43 125 -123c-76 -141 -285 -436 -285 -436l-284 364c-42 54 -63 93 -63 118
c0 48 43 74 130 77v37h-481v-37c33 -3 63 -10 88 -21c84 -35 166 -104 246 -205l320 -404l-267 -391c-59 -87 -109 -147 -148 -180c-61 -51 -131 -78 -212 -81v-37h627v37c-165 8 -162 79 -91 185l208 311l241 -305c41 -51 61 -90 61 -115z" />
    <glyph glyph-name="Y" unicode="Y" 
d="M1372 -1320c-31 1 -75 31 -132 90c-32 33 -66 80 -101 140l-303 514l-24 341c16 79 25 131 28 156c25 28 65 42 120 42h44v37h-576v-37h48c57 0 98 -17 122 -52c-7 -18 -15 -64 -26 -139l32 -316l-356 -580c-70 -113 -84 -133 -200 -192v-40h424l8 24l4 4
c14 6 9 16 -14 29c-29 16 -43 39 -43 68c0 13 20 57 61 130l224 405l256 -392c67 -61 104 -104 104 -128c0 -37 -17 -63 -44 -76c-9 -18 -16 -27 -20 -28l-4 -36h360zM1348 -1320z" />
    <glyph glyph-name="Z" unicode="Z" horiz-adv-x="1251" 
d="M1180 -324v320l-1170 12v-37l850 -1227h-412c-123 0 -192 24 -208 72c-3 45 -12 80 -28 104l-68 -8v-280h956l-832 1236h572c65 18 139 18 168 -28c40 -29 65 -84 76 -164h96z" />
    <glyph glyph-name="bracketleft" unicode="[" horiz-adv-x="592" 
d="M371 412c-177 -3 -258 -50 -258 -219v-1469c0 -163 86 -244 258 -244h180v60h-173c-105 0 -157 61 -157 184v1469c0 106 52 159 157 159h173v60h-180z" />
    <glyph glyph-name="backslash" unicode="\" horiz-adv-x="565" 
d="M556 4h-176l-380 -1198l184 -2z" />
    <glyph glyph-name="bracketright" unicode="]" horiz-adv-x="592" 
d="M479 193c-2 170 -83 219 -259 219h-179v-60h173c105 0 157 -53 157 -159v-1469c0 -123 -52 -184 -157 -184h-173v-60h179c173 0 259 81 259 244v1469z" />
    <glyph glyph-name="asciicircum" unicode="^" horiz-adv-x="788" 
d="M768 -436h-160l-208 -508l-232 508h-141l317 -701h107z" />
    <glyph glyph-name="underscore" unicode="_" horiz-adv-x="1032" 
d="M1042 258h-1042l-8 -130h1044z" />
    <glyph glyph-name="grave" unicode="`" horiz-adv-x="682" 
d="M447 -1045l-55 9l-274 -354h223z" />
    <glyph glyph-name="a" unicode="a" horiz-adv-x="909" 
d="M796 -108c53 0 49 -29 109 -80v56c-75 100 -146 150 -214 150c-71 0 -107 -50 -108 -150c-95 73 -154 115 -177 126c-166 80 -333 -34 -333 -211c0 -95 58 -176 173 -244c68 -40 180 -89 337 -146v-36c0 -159 -57 -239 -170 -239c-68 0 -143 46 -138 112l2 58
c2 64 -26 96 -85 96c-56 0 -84 -32 -84 -97c0 -145 178 -230 335 -230c153 0 248 46 287 138c12 29 18 87 18 176v311c0 121 7 187 22 200c7 7 16 10 26 10zM241 -264c0 84 61 167 142 167c51 0 117 -33 200 -100v-349c-99 39 -164 68 -195 85c-98 55 -147 120 -147 197z
" />
    <glyph glyph-name="b" unicode="b" horiz-adv-x="1024" 
d="M603 -943c217 0 351 221 351 450c0 163 -54 294 -162 393c-191 174 -422 163 -641 12v-949c0 -144 -10 -225 -31 -241c-32 -24 -66 -12 -110 3l-14 -35l275 -112h45v664c89 -123 184 -185 287 -185zM533 -45c161 0 248 -212 248 -391c0 -178 -92 -373 -257 -365
c-100 5 -138 41 -208 107v548c69 67 141 101 217 101z" />
    <glyph glyph-name="c" unicode="c" horiz-adv-x="909" 
d="M232 -543c0 200 111 415 298 415c65 0 123 -22 176 -67c37 -31 72 -87 107 -167l29 14c-35 194 -173 372 -384 376c-237 4 -388 -236 -388 -485c0 -266 176 -486 437 -486c134 0 309 93 309 220c0 57 -31 85 -93 85c-79 0 -96 -26 -112 -119c-15 -83 -44 -119 -137 -119
c-167 0 -242 162 -242 333z" />
    <glyph glyph-name="d" unicode="d" horiz-adv-x="1024" 
d="M68 -420c0 -259 192 -524 443 -524c81 0 147 26 200 77v-169c0 -145 -9 -227 -31 -242c-33 -24 -63 -13 -109 3l-13 -35l273 -112h45v1059c0 146 10 229 32 246c33 26 62 13 110 -3l11 35l-272 113h-46v-131c-83 87 -173 131 -269 131c-219 0 -374 -221 -374 -448z
M499 -882c-361 0 -314 800 36 800c61 0 119 -30 176 -91v-472c5 -126 -85 -237 -212 -237z" />
    <glyph glyph-name="e" unicode="e" horiz-adv-x="909" 
d="M218 -571c-6 222 125 436 334 436c124 0 213 -73 268 -219l31 20c-23 187 -175 362 -375 362c-245 0 -400 -220 -400 -474c0 -282 151 -498 423 -498c212 0 355 160 352 373h-633zM642 -629c0 -155 -75 -242 -199 -244c-130 -3 -215 117 -225 244h424z" />
    <glyph glyph-name="f" unicode="f" horiz-adv-x="682" 
d="M639 -1420c99 -4 246 67 251 169c2 38 -44 83 -82 83c-21 0 -58 -30 -112 -90s-99 -90 -136 -90c-65 0 -106 33 -124 100c-12 24 -14 332 -14 332h236v72h-236v602c-1 148 20 194 127 206h83v36h-547v-36h41c113 -9 131 -64 131 -206v-602h-178v-72h178v-60
c-3 -256 133 -434 382 -444z" />
    <glyph glyph-name="g" unicode="g" horiz-adv-x="1024" 
d="M921 -879c58 1 60 -4 66 43c-5 52 -6 47 -66 47h-119c37 48 56 109 56 184c0 235 -255 364 -500 290c-50 43 -75 82 -75 115c0 29 27 49 81 56c73 9 385 11 407 21c113 14 204 88 204 207c0 75 -35 146 -106 212c-104 97 -240 146 -407 146c-129 0 -238 -29 -326 -87
c-50 -33 -75 -67 -75 -104c0 -33 27 -84 81 -151c5 -7 39 -43 102 -108c-63 -38 -95 -75 -95 -111c0 -54 53 -126 160 -215c-116 -57 -174 -149 -174 -277c0 -195 165 -332 365 -332c87 0 163 21 227 64h194zM483 -895c-215 0 -206 366 -106 485c36 43 79 66 132 66
c116 0 174 -79 174 -236c0 -106 -23 -189 -69 -249c-34 -44 -78 -66 -131 -66zM262 260c165 105 636 90 640 -137c0 -46 -34 -80 -103 -90c-122 -18 -409 -14 -500 -33c-63 69 -95 127 -95 176c0 32 19 60 58 84z" />
    <glyph glyph-name="h" unicode="h" horiz-adv-x="1024" 
d="M875 -207c0 130 12 165 136 171v36h-450v-36h21c70 0 111 -26 124 -77c6 -239 10 -433 -1 -561c-9 -99 -61 -148 -143 -148c-71 0 -147 44 -229 131c0 0 -9 391 3 572c4 56 58 83 145 83v36h-454v-36c116 -4 140 -29 140 -171v-829c0 -145 -9 -227 -30 -242
c-34 -24 -59 -13 -110 3l-14 -35l274 -112h46v670c55 -61 100 -104 135 -129c146 -111 342 -72 388 116c11 44 19 121 19 234v324z" />
    <glyph glyph-name="i" unicode="i" horiz-adv-x="569" 
d="M297 -1422c54 0 101 47 101 101s-47 102 -101 102s-102 -48 -102 -102c0 -56 46 -101 102 -101zM380 -207c9 132 15 173 139 171v36h-445v-36c121 -8 143 -38 140 -171c0 0 10 -417 -9 -546c-10 -67 -71 -66 -131 -42l-14 -36l276 -112h44v736z" />
    <glyph glyph-name="j" unicode="j" horiz-adv-x="569" 
d="M297 -1423c56 0 103 47 103 103s-47 102 -103 102c-54 0 -102 -48 -102 -102c0 -56 46 -103 102 -103zM-156 341c0 -65 72 -109 135 -72c15 1 111 103 147 94c41 0 68 -27 81 -80c7 -29 11 -92 11 -189v-652c0 -101 -3 -165 -9 -194c-13 -68 -71 -67 -131 -43l-14 -36
l276 -112h43v922c3 265 -111 463 -360 463c-76 0 -179 -34 -179 -101z" />
    <glyph glyph-name="k" unicode="k" horiz-adv-x="1024" 
d="M17 -36c133 -6 153 -32 152 -165v-834c0 -146 -9 -229 -30 -244c-32 -23 -60 -14 -105 4l-17 -35l272 -112h46v912s236 -209 319 -299c22 -42 -5 -73 -63 -75v-32h398v32c-96 3 -181 38 -256 107l-235 217s257 345 367 453c59 58 67 70 171 71v36h-445v-36
c93 -9 71 -56 25 -115l-281 -359v304c0 88 16 140 48 157c15 8 49 12 100 13v36h-466v-36z" />
    <glyph glyph-name="l" unicode="l" horiz-adv-x="569" 
d="M379 -207c8 136 19 173 148 171v36h-449v-36c118 -7 135 -42 135 -171v-832c0 -143 -9 -224 -29 -239c-31 -23 -64 -13 -106 3l-17 -35l273 -112h45v1215z" />
    <glyph glyph-name="m" unicode="m" horiz-adv-x="1593" 
d="M1446 -207c-1 134 13 164 138 171v36h-452v-36h19c70 0 112 -25 125 -74c8 -145 4 -491 4 -491c2 -146 -31 -222 -152 -222c-69 0 -148 42 -236 125l-2 11s-7 387 5 568c4 56 58 83 146 83v36h-463v-36c81 0 129 -24 144 -72c11 -144 5 -493 5 -493
c4 -141 -43 -225 -156 -225c-98 0 -192 77 -235 128v491c10 138 15 174 149 171v36h-453v-36c120 -7 142 -40 139 -171c0 0 9 -418 -9 -545c-10 -68 -71 -68 -130 -43l-15 -36l276 -112h43v195c66 -66 105 -104 118 -115c63 -53 130 -80 200 -80c125 0 202 65 231 195
c96 -108 163 -195 320 -195c161 0 241 132 241 342v394z" />
    <glyph glyph-name="n" unicode="n" horiz-adv-x="1024" 
d="M875 -207c9 133 15 173 140 171v36h-453v-36h19c70 0 119 -25 125 -77c16 -137 4 -469 4 -469c0 -159 -47 -238 -142 -238c-79 0 -158 43 -237 130v483c0 61 4 100 11 115c18 37 64 56 138 56v36h-453v-36h20c104 -5 119 -52 119 -171v-340c0 -150 -9 -234 -30 -250
c-30 -23 -68 -13 -109 2l-15 -36l276 -112h43v194c107 -129 210 -194 307 -194c161 0 237 137 237 345v391z" />
    <glyph glyph-name="o" unicode="o" horiz-adv-x="1024" 
d="M512 -943c249 -9 449 219 441 468c-9 282 -168 493 -452 503c-247 9 -439 -231 -432 -477c8 -274 171 -484 443 -494zM255 -533c0 216 97 490 289 490c149 0 223 -118 223 -355c0 -162 -35 -290 -105 -384c-48 -64 -108 -96 -181 -96c-154 0 -226 161 -226 345z" />
    <glyph glyph-name="p" unicode="p" horiz-adv-x="1024" 
d="M612 -943c221 0 343 221 343 452c0 265 -156 521 -418 519c-107 -1 -155 -24 -218 -81v279c-7 141 23 174 155 175v37h-480v-37h25c123 -7 134 -44 134 -181v-866c-8 -114 1 -157 -81 -161c-16 0 -36 5 -61 14l-12 -32l282 -114h38v214c85 -145 183 -218 293 -218z
M533 -798c-117 0 -121 40 -214 132c0 0 -12 361 9 488c14 84 104 146 206 146c67 0 119 -28 162 -78c114 -131 101 -488 -11 -610c-45 -50 -93 -78 -152 -78z" />
    <glyph glyph-name="q" unicode="q" horiz-adv-x="1024" 
d="M875 235c-4 129 20 168 149 166v37h-462v-37h19c113 -7 129 -41 129 -166v-394c-105 125 -205 187 -300 187c-207 0 -342 -227 -342 -445c0 -286 191 -526 471 -526c77 0 140 21 191 64c39 -19 76 -40 111 -64h34v1178zM236 -490c0 197 95 377 278 377
c74 0 139 -36 196 -109v-430c3 -137 -72 -219 -202 -221c-185 -4 -272 181 -272 383z" />
    <glyph glyph-name="r" unicode="r" horiz-adv-x="682" 
d="M568 -943c63 0 127 47 127 111c0 49 -39 95 -88 93c-17 10 -133 -72 -143 -69c-11 0 -24 7 -39 20c-31 28 -62 73 -93 135v439c1 128 36 176 160 178v36h-469v-36c79 0 125 -24 139 -73c10 -131 5 -452 5 -452c0 -91 1 -121 1 -121c-10 -88 -8 -128 -75 -128
c-21 0 -44 5 -70 15l-10 -36l277 -112h42v206c77 -137 155 -206 236 -206z" />
    <glyph glyph-name="s" unicode="s" horiz-adv-x="797" 
d="M374 -884c-74 -3 -156 48 -156 119s53 132 158 183l146 71c135 66 203 153 203 261c0 162 -140 278 -306 278c-69 0 -168 -40 -246 -40c-15 0 -27 9 -36 26h-33v-327h33c27 149 124 280 284 282c83 1 156 -58 156 -138c0 -55 -30 -102 -85 -147
c-49 -40 -273 -137 -321 -191c-44 -49 -71 -103 -71 -171c0 -153 123 -265 278 -265c45 0 153 38 199 38c18 0 33 -13 46 -38h33v312h-33c-40 -150 -89 -247 -249 -253z" />
    <glyph glyph-name="t" unicode="t" horiz-adv-x="569" 
d="M20 -879c127 -56 219 -170 279 -338h31v301h214v70h-214v594c0 101 30 151 91 151c52 0 89 -27 112 -81h39c-47 131 -124 197 -231 197c-125 0 -176 -92 -176 -245v-616h-145v-33z" />
    <glyph glyph-name="u" unicode="u" horiz-adv-x="1024" 
d="M702 -744c-3 -111 -34 -131 -147 -135v-37h312v555c0 145 10 226 32 244c31 25 67 13 108 -3l14 35l-274 113h-45v-194c-59 65 -105 109 -137 132c-57 41 -115 62 -174 62c-176 0 -234 -148 -234 -357v-409c-7 -113 -32 -146 -155 -141v-37h321v613c0 139 51 208 152 208
c66 0 142 -43 227 -130v-519z" />
    <glyph glyph-name="v" unicode="v" horiz-adv-x="1024" 
d="M811 -830c0 -44 -40 -45 -105 -49v-37h299v37c-94 8 -102 42 -135 121l-325 786h-41l-327 -773c-44 -84 -60 -121 -160 -134v-37h431v37h-28c-94 -2 -89 81 -59 153l213 506l214 -525c15 -37 23 -66 23 -85z" />
    <glyph glyph-name="w" unicode="w" 
d="M1460 -879c-58 9 -101 48 -128 118l-306 789h-41l-229 -585l-267 585h-37l-294 -770c-34 -86 -54 -114 -145 -137v-37h384v37c-97 6 -97 61 -69 137l196 527l197 -429l-52 -135c-31 -66 -51 -97 -145 -100v-37h436v37c-101 4 -143 44 -114 118l208 526l193 -507
c31 -83 40 -134 -76 -137v-37h289v37z" />
    <glyph glyph-name="x" unicode="x" horiz-adv-x="1024" 
d="M999 0h-432v-36c59 0 89 -19 89 -57c0 -15 -21 -53 -64 -116l-134 -196l-147 196c-45 61 -68 97 -68 108c0 41 30 62 90 65v36h-299v-36c25 -3 46 -12 63 -25c26 -20 69 -69 128 -148l192 -255s-176 -273 -262 -365c-34 -36 -79 -50 -128 -50v-37h431v37
c-95 4 -85 64 -39 125c36 48 98 154 98 154s147 -192 147 -229c0 -33 -24 -50 -72 -50v-37h310v37c-33 2 -61 11 -85 27c-70 49 -259 315 -259 315s213 322 315 444c32 38 77 54 126 57v36z" />
    <glyph glyph-name="y" unicode="y" horiz-adv-x="1024" 
d="M806 -828c0 -44 -34 -52 -92 -51v-37h298v37c-80 19 -98 48 -135 138l-373 914c-48 125 -162 266 -310 269c-69 2 -135 -46 -135 -112c0 -62 34 -93 103 -93c24 -6 113 37 140 37c50 0 96 -50 137 -151l65 -159l-329 -691c-11 -27 -64 -105 -89 -124
c-15 -11 -39 -20 -74 -28v-37h427v37h-21c-119 2 -98 91 -57 176l223 462l205 -506c11 -28 17 -55 17 -81z" />
    <glyph glyph-name="z" unicode="z" horiz-adv-x="909" 
d="M596 -67c178 2 216 -42 230 -214h34l-11 281h-808v-36l608 -810s-287 -10 -400 5c-66 9 -101 74 -107 179h-40l6 -254h768v37l-614 812h334z" />
    <glyph glyph-name="braceleft" unicode="{" horiz-adv-x="635" 
d="M254 0c-52 178 38 359 213 352h128v60h-108c-260 12 -416 -187 -337 -445l70 -252c28 -123 -14 -236 -107 -276c93 -39 142 -152 107 -273l-70 -243c-14 -49 -21 -95 -21 -138c1 -200 149 -308 358 -305h108v60h-128c-176 -6 -262 176 -213 357l74 272
c25 110 -57 238 -131 270c75 30 162 188 131 299z" />
    <glyph glyph-name="bar" unicode="|" horiz-adv-x="258" 
d="M195 0h-129v-1194h129v1194z" />
    <glyph glyph-name="braceright" unicode="}" horiz-adv-x="635" 
d="M149 -1520c207 -3 359 106 357 305c0 43 -7 89 -21 138l-70 243c-28 123 14 234 108 273c-94 40 -142 154 -108 276l70 252c81 258 -79 456 -336 445h-108v-60h127c175 6 263 -173 213 -352l-73 -262c-26 -113 55 -269 130 -299c-74 -32 -159 -161 -130 -270l73 -272
c51 -180 -36 -363 -213 -357h-127v-60h108z" />
    <glyph glyph-name="asciitilde" unicode="~" horiz-adv-x="1112" 
d="M1081 -645c-90 158 -194 237 -311 237c-45 0 -90 -10 -134 -29l-104 -46c-133 -72 -221 -106 -329 -19c-27 22 -62 67 -107 131l-76 -100c82 -145 184 -217 305 -217c49 0 127 31 240 76c112 44 184 58 209 58c77 0 147 -52 209 -155z" />
  </font>
</defs>
</svg>
